<svg width="24" height="24" viewBox="0 0 24 24" fill="none" xmlns="http://www.w3.org/2000/svg">
<path d="M3.68725 11.273C3.59178 11.1828 3.47947 11.1123 3.35674 11.0655C3.23401 11.0186 3.10327 10.9965 2.97196 11.0002C2.84066 11.0039 2.71138 11.0334 2.59149 11.0871C2.47161 11.1408 2.36347 11.2176 2.27325 11.313C2.18303 11.4085 2.1125 11.5208 2.06569 11.6435C2.01887 11.7663 1.99669 11.897 2.0004 12.0283C2.00411 12.1596 2.03365 12.2889 2.08733 12.4088C2.14101 12.5287 2.21778 12.6368 2.31325 12.727L11.3132 21.227C11.4989 21.4026 11.7447 21.5004 12.0002 21.5004C12.2558 21.5004 12.5016 21.4026 12.6872 21.227L21.6882 12.727C21.7858 12.6374 21.8646 12.5293 21.92 12.409C21.9754 12.2886 22.0064 12.1585 22.0111 12.0261C22.0158 11.8937 21.9942 11.7617 21.9474 11.6377C21.9007 11.5138 21.8298 11.4003 21.7388 11.304C21.6479 11.2077 21.5387 11.1304 21.4176 11.0767C21.2965 11.0229 21.166 10.9937 21.0335 10.9908C20.9011 10.9879 20.7694 11.0114 20.6461 11.0598C20.5228 11.1083 20.4103 11.1808 20.3153 11.273L12.0002 19.125L3.68725 11.273Z" fill="black"/>
</svg>
