<svg width="70" height="70" viewBox="0 0 70 70" fill="none" xmlns="http://www.w3.org/2000/svg">
<path fill-rule="evenodd" clip-rule="evenodd" d="M26.0196 21.2712C26.5665 21.0779 27.1678 21.1098 27.6912 21.3597C28.2146 21.6097 28.6174 22.0573 28.8108 22.6042C29.2631 23.8847 30.1013 24.9934 31.2101 25.7777C32.3188 26.5619 33.6434 26.9831 35.0015 26.9831C36.3595 26.9831 37.6841 26.5619 38.7928 25.7777C39.9016 24.9934 40.7398 23.8847 41.1921 22.6042C41.2844 22.3289 41.4305 22.0748 41.622 21.8566C41.8134 21.6385 42.0464 21.4606 42.3073 21.3333C42.5682 21.2061 42.8519 21.1321 43.1417 21.1156C43.4315 21.0991 43.7217 21.1404 43.9954 21.2372C44.2691 21.3339 44.5207 21.4842 44.7357 21.6792C44.9508 21.8743 45.1248 22.1101 45.2477 22.3731C45.3707 22.6361 45.4401 22.9209 45.4518 23.2109C45.4636 23.501 45.4175 23.7904 45.3162 24.0625C44.5621 26.1956 43.1653 28.0424 41.318 29.3486C39.4707 30.6549 37.2639 31.3563 35.0015 31.3563C32.739 31.3563 30.5322 30.6549 28.6849 29.3486C26.8376 28.0424 25.4408 26.1956 24.6867 24.0625C24.4934 23.5156 24.5252 22.9143 24.7751 22.3909C25.0251 21.8674 25.4727 21.4647 26.0196 21.2712ZM36.0529 16.0417H33.9471C29.2075 16.0417 26.0517 16.0504 23.66 16.345C21.3908 16.625 20.3437 17.1121 19.6087 17.7217C18.8737 18.3342 18.2029 19.2704 17.5087 21.4492C16.7796 23.7446 16.1904 26.845 15.3154 31.5058C14.0904 38.0392 13.2679 42.4754 13.1221 45.8179C12.9821 49.0408 13.5217 50.4117 14.28 51.3246C15.0383 52.2375 16.2837 53.0192 19.4775 53.4742C22.7879 53.9467 27.3029 53.9583 33.95 53.9583H36.05C42.7 53.9583 47.2121 53.9467 50.5225 53.4742C53.7162 53.0192 54.9617 52.2375 55.72 51.3246C56.4783 50.4087 57.0179 49.0408 56.8779 45.8179C56.7321 42.4754 55.9096 38.0392 54.6846 31.5058C53.8096 26.845 53.2233 23.7475 52.4912 21.4492C51.7971 19.2704 51.1262 18.3312 50.3912 17.7217C49.6562 17.1121 48.6121 16.625 46.34 16.345C43.9483 16.0504 40.7925 16.0417 36.0529 16.0417ZM16.8146 14.3558C13.5771 17.045 12.7225 21.5979 11.0162 30.7008C8.61583 43.5021 7.41416 49.9012 10.9142 54.1187C14.4142 58.3333 20.9242 58.3333 33.9471 58.3333H36.0529C49.0758 58.3333 55.5888 58.3333 59.0888 54.1187C62.5888 49.9012 61.3871 43.5021 58.9867 30.6979C57.2804 21.5979 56.4258 17.045 53.1854 14.3558C49.9479 11.6667 45.3133 11.6667 36.0529 11.6667H33.9471C24.6867 11.6667 20.055 11.6667 16.8146 14.3558Z" fill="black"/>
</svg>
