<svg width="49" height="49" viewBox="0 0 49 49" fill="none" xmlns="http://www.w3.org/2000/svg">
<path d="M43.6496 40.2755L34.6567 31.2826C36.8218 28.4003 37.9905 24.892 37.9866 21.2871C37.9866 12.0791 30.4952 4.58774 21.2872 4.58774C12.0793 4.58774 4.58789 12.0791 4.58789 21.2871C4.58789 30.4951 12.0793 37.9864 21.2872 37.9864C24.8921 37.9904 28.4005 36.8216 31.2828 34.6565L40.2757 43.6494C40.7309 44.0564 41.3246 44.2736 41.935 44.2565C42.5453 44.2394 43.126 43.9893 43.5577 43.5576C43.9895 43.1258 44.2396 42.5452 44.2566 41.9348C44.2737 41.3245 44.0565 40.7307 43.6496 40.2755ZM9.35913 21.2871C9.35913 18.9279 10.0587 16.6218 11.3694 14.6602C12.6801 12.6986 14.543 11.1698 16.7226 10.267C18.9021 9.36414 21.3005 9.12793 23.6143 9.58818C25.9281 10.0484 28.0535 11.1845 29.7217 12.8526C31.3899 14.5208 32.5259 16.6462 32.9862 18.96C33.4464 21.2739 33.2102 23.6722 32.3074 25.8518C31.4046 28.0314 29.8757 29.8943 27.9141 31.2049C25.9526 32.5156 23.6464 33.2152 21.2872 33.2152C18.1249 33.2114 15.0931 31.9535 12.857 29.7173C10.6209 27.4812 9.36293 24.4495 9.35913 21.2871Z" fill="#B8AFAF"/>
</svg>
