<svg width="41" height="48" viewBox="0 0 41 48" fill="none" xmlns="http://www.w3.org/2000/svg">
<path d="M23.012 15.06C23.2522 15.3409 23.5778 15.4987 23.9174 15.4987C24.2569 15.4987 24.5826 15.3409 24.8228 15.06L26.0528 13.62V34C26.0528 34.3978 26.1878 34.7794 26.4281 35.0607C26.6683 35.342 26.9942 35.5 27.334 35.5C27.6739 35.5 27.9997 35.342 28.24 35.0607C28.4803 34.7794 28.6153 34.3978 28.6153 34V13.62L29.8453 15.06C29.9626 15.2074 30.104 15.3256 30.2612 15.4076C30.4184 15.4895 30.588 15.5336 30.7601 15.5372C30.9321 15.5407 31.103 15.5037 31.2625 15.4282C31.4221 15.3528 31.567 15.2405 31.6886 15.0981C31.8103 14.9556 31.9062 14.786 31.9707 14.5992C32.0351 14.4124 32.0668 14.2124 32.0637 14.011C32.0607 13.8095 32.023 13.6109 31.953 13.4269C31.883 13.2429 31.782 13.0773 31.6561 12.94L28.2395 8.94C27.9992 8.6591 27.6736 8.50132 27.334 8.50132C26.9945 8.50132 26.6689 8.6591 26.4286 8.94L23.012 12.94C22.772 13.2213 22.6373 13.6025 22.6373 14C22.6373 14.3975 22.772 14.7787 23.012 15.06ZM14.9486 34.38L16.1786 32.94C16.2959 32.7926 16.4374 32.6744 16.5945 32.5924C16.7517 32.5105 16.9214 32.4664 17.0934 32.4628C17.2654 32.4593 17.4363 32.4963 17.5959 32.5718C17.7554 32.6472 17.9003 32.7595 18.022 32.9019C18.1436 33.0444 18.2396 33.214 18.304 33.4008C18.3684 33.5876 18.4001 33.7876 18.3971 33.989C18.394 34.1905 18.3564 34.3891 18.2863 34.5731C18.2163 34.7571 18.1153 34.9227 17.9895 35.06L14.5728 39.06C14.3326 39.3409 14.0069 39.4987 13.6674 39.4987C13.3278 39.4987 13.0022 39.3409 12.762 39.06L9.34529 35.06C9.21941 34.9227 9.11844 34.7571 9.04842 34.5731C8.97839 34.3891 8.94073 34.1905 8.9377 33.989C8.93466 33.7876 8.96631 33.5876 9.03075 33.4008C9.09519 33.214 9.1911 33.0444 9.31277 32.9019C9.43443 32.7595 9.57936 32.6472 9.7389 32.5718C9.89843 32.4963 10.0693 32.4593 10.2414 32.4628C10.4134 32.4664 10.583 32.5105 10.7402 32.5924C10.8974 32.6744 11.0388 32.7926 11.1561 32.94L12.3861 34.38V14C12.3861 13.6022 12.5211 13.2206 12.7614 12.9393C13.0017 12.658 13.3276 12.5 13.6674 12.5C14.0072 12.5 14.3331 12.658 14.5734 12.9393C14.8136 13.2206 14.9486 13.6022 14.9486 14V34.38Z" fill="black"/>
</svg>
