<svg width="495" height="473" viewBox="0 0 495 473" fill="none" xmlns="http://www.w3.org/2000/svg">
<g clip-path="url(#clip0_4_3)">
<rect width="495" height="473" fill="white"/>
<path d="M113.6 99.2C113.333 97.7333 113.067 96.3333 112.8 95C112.533 93.6667 111.867 92.8 110.8 92.4C108.533 91.7333 106.133 91.6667 103.6 92.2C101.067 92.7333 98.7333 93.6 96.6 94.8C94.4667 95.8667 92.6667 97.1333 91.2 98.6C89.7333 99.9333 88.9333 101.133 88.8 102.2C88.4 104.2 88.9333 106.133 90.4 108C91.8667 109.867 94 111.733 96.8 113.6C101.467 116.4 106.333 119.267 111.4 122.2C116.467 125.133 120.733 128.133 124.2 131.2C127.667 134.267 130 137.667 131.2 141.4C132.533 145 132.267 149.133 130.4 153.8C128.933 157.4 126.2 160.333 122.2 162.6C118.2 164.867 113.8 166.667 109 168C104.2 169.2 99.4 170.067 94.6 170.6C89.8 171 85.7333 171.2 82.4 171.2C81.6 171.2 80.6 170.933 79.4 170.4C78.3333 169.733 77.2667 169 76.2 168.2C75.2667 167.4 74.4 166.6 73.6 165.8C72.9333 164.867 72.6 164.067 72.6 163.4C72.6 161 73.6667 159.333 75.8 158.4C77.9333 157.467 80.1333 157 82.4 157C85.6 157 89 156.867 92.6 156.6C96.3333 156.2 99.8667 155.667 103.2 155C106.533 154.2 109.533 153.2 112.2 152C114.867 150.8 116.733 149.267 117.8 147.4C118.733 145.8 118.133 143.933 116 141.8C114 139.533 111.267 137.2 107.8 134.8C104.467 132.4 100.8 130.067 96.8 127.8C92.9333 125.533 89.6 123.467 86.8 121.6C84 119.733 81.6 117.533 79.6 115C77.6 112.333 76.3333 109.067 75.8 105.2C75.6667 101.733 76.4 98.4 78 95.2C79.6 92 81.6667 89.2 84.2 86.8C86.8667 84.2667 89.8667 82.2667 93.2 80.8C96.5333 79.3333 99.8667 78.6 103.2 78.6C108.933 78.8667 113.667 80.4667 117.4 83.4C121.133 86.2 123.333 90.4 124 96C124 97.8667 123.667 99.4 123 100.6C122.467 101.8 121.467 102.533 120 102.8C118.133 103.067 116.6 102.867 115.4 102.2C114.333 101.4 113.733 100.4 113.6 99.2ZM161.173 99.8C160.373 103.4 159.573 107.4 158.773 111.8C157.973 116.067 157.373 120.2 156.973 124.2C156.707 128.2 156.707 131.8 156.973 135C157.373 138.2 158.24 140.467 159.573 141.8C161.84 142.2 164.44 141.267 167.373 139C170.307 136.6 173.173 133.6 175.973 130C178.773 126.4 181.307 122.533 183.573 118.4C185.84 114.133 187.44 110.4 188.373 107.2C188.907 105.6 189.373 103.933 189.773 102.2C190.173 100.467 190.373 98.6667 190.373 96.8C190.373 95.7333 191.04 94.7333 192.373 93.8C193.84 92.7333 195.04 92.1333 195.973 92C196.64 91.8667 197.373 92 198.173 92.4C199.107 92.8 199.907 93.4 200.573 94.2C201.373 94.8667 202.04 95.7333 202.573 96.8C203.24 97.7333 203.573 98.7333 203.573 99.8C203.84 103.8 204.24 108.2 204.773 113C205.307 117.8 205.907 122.6 206.573 127.4C207.373 132.2 208.173 136.867 208.973 141.4C209.773 145.933 210.573 150 211.373 153.6C211.773 155.067 211.373 156.733 210.173 158.6C208.973 160.467 207.64 161.6 206.173 162C204.973 162.267 203.707 162.133 202.373 161.6C201.173 161.067 200.24 160 199.573 158.4C198.907 156.533 198.24 154.267 197.573 151.6C197.04 148.8 196.507 145.933 195.973 143C195.573 139.933 195.173 137.067 194.773 134.4C194.373 131.6 194.107 129.267 193.973 127.4C191.973 131 189.573 134.667 186.773 138.4C184.107 142 181.173 145.333 177.973 148.4C174.907 151.333 171.64 153.667 168.173 155.4C164.84 157 161.373 157.6 157.773 157.2C152.44 156.533 148.373 151.533 145.573 142.2C144.507 138.467 143.973 134.333 143.973 129.8C144.107 125.267 144.44 120.8 144.973 116.4C145.64 111.867 146.373 107.6 147.173 103.6C148.107 99.6 148.907 96.3333 149.573 93.8C149.84 92.7333 150.373 91.8 151.173 91C151.973 90.0667 152.907 89.7333 153.973 90C155.973 90.4 157.773 91.6 159.373 93.6C161.107 95.6 161.707 97.6667 161.173 99.8ZM285.805 90C283.405 91.3333 280.871 92.7333 278.205 94.2C275.671 95.6667 273.071 97.4 270.405 99.4C267.871 101.267 265.405 103.533 263.005 106.2C260.738 108.733 258.671 111.8 256.805 115.4C254.138 120.467 252.338 125.667 251.405 131C250.471 136.2 249.871 141.333 249.605 146.4C249.605 148.8 249.005 151.267 247.805 153.8C246.738 156.2 245.205 157.4 243.205 157.4C240.671 157.4 238.605 156.133 237.005 153.6C235.538 150.933 234.538 148.4 234.005 146C231.738 136.533 229.871 127.2 228.405 118C226.938 108.667 225.671 99.4 224.605 90.2C224.605 88.3333 225.138 87.1333 226.205 86.6C227.405 86.0667 228.738 85.8667 230.205 86C231.805 86.1333 233.338 86.5333 234.805 87.2C236.271 87.8667 237.138 88.9333 237.405 90.4C237.938 95.3333 238.605 100.533 239.405 106C240.205 111.333 241.005 115.933 241.805 119.8C242.338 115.267 243.805 110.867 246.205 106.6C248.605 102.333 251.538 98.4667 255.005 95C258.605 91.5333 262.605 88.6 267.005 86.2C271.538 83.8 276.138 82.2 280.805 81.4C282.805 81.1333 284.471 81.1333 285.805 81.4C287.138 81.6667 288.071 82.1333 288.605 82.8C289.138 83.4667 289.205 84.5333 288.805 86C288.538 87.4667 287.538 88.8 285.805 90ZM346.28 112C341.08 115.067 335.48 117.467 329.48 119.2C323.48 120.8 317.013 121.6 310.08 121.6C310.346 126.267 311.68 130 314.08 132.8C316.48 135.467 319.48 137.067 323.08 137.6C325.213 137.867 327.346 137.8 329.48 137.4C331.746 137 333.813 136.4 335.68 135.6C337.68 134.667 339.48 133.667 341.08 132.6C342.68 131.533 344.08 130.467 345.28 129.4C346.48 128.333 347.746 127.667 349.08 127.4C350.413 127 351.413 126.933 352.08 127.2C353.946 127.867 354.613 129.867 354.08 133.2C351.946 137.467 348.88 141.133 344.88 144.2C340.88 147.133 336.413 149 331.48 149.8C327.213 150.6 322.813 150.4 318.28 149.2C313.746 148 309.68 145.667 306.08 142.2C303.013 139.133 300.68 135.533 299.08 131.4C297.48 127.267 296.48 123 296.08 118.6C295.68 114.467 296.013 110.533 297.08 106.8C298.28 103.067 300.08 99.8 302.48 97C304.88 94.0667 307.88 91.6667 311.48 89.8C315.08 87.9333 319.28 86.8667 324.08 86.6C329.813 86.2 335.013 87.2667 339.68 89.8C344.346 92.3333 347.613 95.8667 349.48 100.4C350.546 102.933 350.813 105.133 350.28 107C349.88 108.867 348.546 110.533 346.28 112ZM323.28 98.4C321.946 98.6667 320.48 99.1333 318.88 99.8C317.413 100.467 316.013 101.333 314.68 102.4C313.48 103.333 312.346 104.467 311.28 105.8C310.346 107 309.813 108.4 309.68 110C311.946 110 314.413 109.8 317.08 109.4C319.88 109 322.546 108.533 325.08 108C327.746 107.333 330.146 106.6 332.28 105.8C334.546 105 336.413 104.133 337.88 103.2C336.813 100.667 334.813 99.1333 331.88 98.6C329.08 97.9333 326.213 97.8667 323.28 98.4Z" fill="#22A699"/>
<path d="M136 320C133.6 321.333 131.067 322.733 128.4 324.2C125.867 325.667 123.267 327.4 120.6 329.4C118.067 331.267 115.6 333.533 113.2 336.2C110.933 338.733 108.867 341.8 107 345.4C104.333 350.467 102.533 355.667 101.6 361C100.667 366.2 100.067 371.333 99.8 376.4C99.8 378.8 99.2 381.267 98 383.8C96.9333 386.2 95.4 387.4 93.4 387.4C90.8667 387.4 88.8 386.133 87.2 383.6C85.7333 380.933 84.7333 378.4 84.2 376C81.9333 366.533 80.0667 357.2 78.6 348C77.1333 338.667 75.8667 329.4 74.8 320.2C74.8 318.333 75.3333 317.133 76.4 316.6C77.6 316.067 78.9333 315.867 80.4 316C82 316.133 83.5333 316.533 85 317.2C86.4667 317.867 87.3333 318.933 87.6 320.4C88.1333 325.333 88.8 330.533 89.6 336C90.4 341.333 91.2 345.933 92 349.8C92.5333 345.267 94 340.867 96.4 336.6C98.8 332.333 101.733 328.467 105.2 325C108.8 321.533 112.8 318.6 117.2 316.2C121.733 313.8 126.333 312.2 131 311.4C133 311.133 134.667 311.133 136 311.4C137.333 311.667 138.267 312.133 138.8 312.8C139.333 313.467 139.4 314.533 139 316C138.733 317.467 137.733 318.8 136 320ZM196.475 342C191.275 345.067 185.675 347.467 179.675 349.2C173.675 350.8 167.208 351.6 160.275 351.6C160.542 356.267 161.875 360 164.275 362.8C166.675 365.467 169.675 367.067 173.275 367.6C175.408 367.867 177.542 367.8 179.675 367.4C181.942 367 184.008 366.4 185.875 365.6C187.875 364.667 189.675 363.667 191.275 362.6C192.875 361.533 194.275 360.467 195.475 359.4C196.675 358.333 197.942 357.667 199.275 357.4C200.608 357 201.608 356.933 202.275 357.2C204.142 357.867 204.808 359.867 204.275 363.2C202.142 367.467 199.075 371.133 195.075 374.2C191.075 377.133 186.608 379 181.675 379.8C177.408 380.6 173.008 380.4 168.475 379.2C163.942 378 159.875 375.667 156.275 372.2C153.208 369.133 150.875 365.533 149.275 361.4C147.675 357.267 146.675 353 146.275 348.6C145.875 344.467 146.208 340.533 147.275 336.8C148.475 333.067 150.275 329.8 152.675 327C155.075 324.067 158.075 321.667 161.675 319.8C165.275 317.933 169.475 316.867 174.275 316.6C180.008 316.2 185.208 317.267 189.875 319.8C194.542 322.333 197.808 325.867 199.675 330.4C200.742 332.933 201.008 335.133 200.475 337C200.075 338.867 198.742 340.533 196.475 342ZM173.475 328.4C172.142 328.667 170.675 329.133 169.075 329.8C167.608 330.467 166.208 331.333 164.875 332.4C163.675 333.333 162.542 334.467 161.475 335.8C160.542 337 160.008 338.4 159.875 340C162.142 340 164.608 339.8 167.275 339.4C170.075 339 172.742 338.533 175.275 338C177.942 337.333 180.342 336.6 182.475 335.8C184.742 335 186.608 334.133 188.075 333.2C187.008 330.667 185.008 329.133 182.075 328.6C179.275 327.933 176.408 327.867 173.475 328.4ZM268.192 315C268.726 318.733 269.126 322.733 269.392 327C269.792 331.133 270.059 335.333 270.192 339.6C270.459 343.867 270.592 348 270.592 352C270.592 356 270.526 359.6 270.392 362.8C274.659 365.733 277.192 368.333 277.992 370.6C278.926 372.867 279.059 374.867 278.392 376.6C277.592 379 276.126 380.267 273.992 380.4C271.992 380.4 269.659 379.667 266.992 378.2C265.126 379.533 262.992 381 260.592 382.6C258.192 384.067 255.659 385.533 252.992 387C250.326 388.333 247.659 389.533 244.992 390.6C242.326 391.667 239.859 392.4 237.592 392.8C233.326 393.467 229.459 392.667 225.992 390.4C222.659 388.133 220.392 384.733 219.192 380.2C218.392 377.133 218.192 374 218.592 370.8C218.992 367.467 219.992 364.333 221.592 361.4C223.192 358.333 225.326 355.6 227.992 353.2C230.792 350.8 234.059 348.933 237.792 347.6C238.726 347.2 239.992 346.867 241.592 346.6C243.326 346.333 245.059 346.267 246.792 346.4C248.659 346.4 250.526 346.733 252.392 347.4C254.259 348.067 255.992 349.2 257.592 350.8C257.592 348.533 257.526 346.067 257.392 343.4C257.392 340.6 257.326 337.8 257.192 335C257.059 332.2 256.859 329.6 256.592 327.2C256.459 324.667 256.259 322.533 255.992 320.8C255.726 318.8 254.926 317.6 253.592 317.2C252.392 316.667 250.859 316.733 248.992 317.4C245.792 318.467 242.059 320.533 237.792 323.6C233.526 326.667 229.459 329.933 225.592 333.4C224.392 334.6 222.992 335.133 221.392 335C219.926 334.867 218.659 334.267 217.592 333.2C216.526 332.133 215.926 330.933 215.792 329.6C215.659 328.133 216.192 326.6 217.392 325C219.659 322.6 222.192 320.133 224.992 317.6C227.792 315.067 230.726 312.8 233.792 310.8C236.859 308.667 239.992 306.933 243.192 305.6C246.392 304.267 249.592 303.533 252.792 303.4C257.459 303.267 261.059 304.333 263.592 306.6C266.126 308.733 267.659 311.533 268.192 315ZM244.992 358C243.259 358.4 241.392 359.267 239.392 360.6C237.526 361.8 235.792 363.333 234.192 365.2C232.726 366.933 231.592 368.933 230.792 371.2C230.126 373.333 230.126 375.467 230.792 377.6C231.059 378.4 231.592 379 232.392 379.4C233.326 379.8 234.326 379.867 235.392 379.6C238.592 378.933 242.192 377.667 246.192 375.8C250.326 373.8 253.592 371.667 255.992 369.4C255.992 368.6 255.592 367.6 254.792 366.4C253.992 365.067 253.059 363.8 251.992 362.6C250.926 361.267 249.726 360.133 248.392 359.2C247.192 358.267 246.059 357.867 244.992 358ZM323.867 287.6C323.467 285.2 323.601 283 324.267 281C325.067 279 326.601 277.867 328.867 277.6C330.867 277.333 332.601 277.867 334.067 279.2C335.667 280.533 336.667 282.267 337.067 284.4C339.734 299.733 342.201 315 344.467 330.2C346.867 345.267 349.001 360.067 350.867 374.6C351.401 378.467 351.134 381.133 350.067 382.6C349.001 383.933 347.734 384.933 346.267 385.6C344.667 386.267 343.134 386.267 341.667 385.6C340.334 384.933 339.467 383.733 339.067 382L338.867 380.8L338.067 381C333.667 382.6 329.067 383.533 324.267 383.8C319.467 383.933 314.867 383.333 310.467 382C306.067 380.667 302.134 378.533 298.667 375.6C295.334 372.533 292.934 368.667 291.467 364C288.267 353.733 290.267 344.4 297.467 336C300.534 332.533 304.334 329.4 308.867 326.6C313.401 323.8 318.867 321.6 325.267 320L328.867 319.2L323.867 287.6ZM303.667 359C304.467 362.2 305.934 364.667 308.067 366.4C310.201 368.133 312.734 369.333 315.667 370C318.601 370.533 321.734 370.6 325.067 370.2C328.401 369.8 331.667 369.067 334.867 368L336.667 367.4L331.067 332.2L327.067 333.2C324.267 334 321.267 335.267 318.067 337C315.001 338.6 312.267 340.533 309.867 342.8C307.467 345.067 305.601 347.6 304.267 350.4C303.067 353.2 302.867 356.067 303.667 359ZM398.952 329.2C398.685 327.733 398.418 326.333 398.152 325C397.885 323.667 397.218 322.8 396.152 322.4C393.885 321.733 391.485 321.667 388.952 322.2C386.418 322.733 384.085 323.6 381.952 324.8C379.818 325.867 378.018 327.133 376.552 328.6C375.085 329.933 374.285 331.133 374.152 332.2C373.752 334.2 374.285 336.133 375.752 338C377.218 339.867 379.352 341.733 382.152 343.6C386.818 346.4 391.685 349.267 396.752 352.2C401.818 355.133 406.085 358.133 409.552 361.2C413.018 364.267 415.352 367.667 416.552 371.4C417.885 375 417.618 379.133 415.752 383.8C414.285 387.4 411.552 390.333 407.552 392.6C403.552 394.867 399.152 396.667 394.352 398C389.552 399.2 384.752 400.067 379.952 400.6C375.152 401 371.085 401.2 367.752 401.2C366.952 401.2 365.952 400.933 364.752 400.4C363.685 399.733 362.618 399 361.552 398.2C360.618 397.4 359.752 396.6 358.952 395.8C358.285 394.867 357.952 394.067 357.952 393.4C357.952 391 359.018 389.333 361.152 388.4C363.285 387.467 365.485 387 367.752 387C370.952 387 374.352 386.867 377.952 386.6C381.685 386.2 385.218 385.667 388.552 385C391.885 384.2 394.885 383.2 397.552 382C400.218 380.8 402.085 379.267 403.152 377.4C404.085 375.8 403.485 373.933 401.352 371.8C399.352 369.533 396.618 367.2 393.152 364.8C389.818 362.4 386.152 360.067 382.152 357.8C378.285 355.533 374.952 353.467 372.152 351.6C369.352 349.733 366.952 347.533 364.952 345C362.952 342.333 361.685 339.067 361.152 335.2C361.018 331.733 361.752 328.4 363.352 325.2C364.952 322 367.018 319.2 369.552 316.8C372.218 314.267 375.218 312.267 378.552 310.8C381.885 309.333 385.218 308.6 388.552 308.6C394.285 308.867 399.018 310.467 402.752 313.4C406.485 316.2 408.685 320.4 409.352 326C409.352 327.867 409.018 329.4 408.352 330.6C407.818 331.8 406.818 332.533 405.352 332.8C403.485 333.067 401.952 332.867 400.752 332.2C399.685 331.4 399.085 330.4 398.952 329.2ZM444.925 385.8C445.592 390.6 443.592 393.333 438.925 394C436.525 394.267 434.525 393.6 432.925 392C431.458 390.4 430.525 388.467 430.125 386.2C429.725 383.8 429.858 381.467 430.525 379.2C431.325 376.933 432.792 375.667 434.925 375.4C437.592 375 439.858 376 441.725 378.4C443.592 380.667 444.658 383.133 444.925 385.8Z" fill="black"/>
</g>
<defs>
<clipPath id="clip0_4_3">
<rect width="495" height="473" fill="white"/>
</clipPath>
</defs>
</svg>
